<?xml version="1.0" encoding="UTF-8"?>
<svg version="1.1" xmlns="http://www.w3.org/2000/svg" width="575" height="575">
<path d="M0 0 C4.9698399 3.43155612 7.01999985 7.0753284 8.625 12.8125 C9.89562541 31.28951114 -0.04747298 50.63614784 -7.19384766 67.09179688 C-8.23891389 69.49903501 -9.26933724 71.91171933 -10.29296875 74.328125 C-14.28043683 83.68195768 -18.73264682 92.76895485 -23.375 101.8125 C-23.87418945 102.79154297 -24.37337891 103.77058594 -24.88769531 104.77929688 C-32.48540127 119.66918305 -40.3341285 134.37342416 -48.67578125 148.85986328 C-50.46803911 151.97416882 -52.24993784 155.09426611 -54.03125 158.21484375 C-62.24163302 172.56303419 -70.68801838 186.74820496 -79.375 200.8125 C-79.97280273 201.78396973 -80.57060547 202.75543945 -81.18652344 203.75634766 C-90.58027718 219.00559117 -100.3447005 233.97514825 -110.375 248.8125 C-110.94992187 249.66714844 -111.52484375 250.52179688 -112.1171875 251.40234375 C-119.66965011 262.62466495 -127.52479721 273.58507767 -135.60449219 284.43310547 C-138.56022377 288.40532831 -141.49946623 292.38967765 -144.4375 296.375 C-145.01749756 297.16132813 -145.59749512 297.94765625 -146.19506836 298.7578125 C-150.11997109 304.086857 -154.00749865 309.44168808 -157.875 314.8125 C-164.04865699 323.3858779 -170.30817243 331.8940194 -176.58691406 340.390625 C-178.41206762 342.86270627 -180.2338857 345.33721201 -182.0546875 347.8125 C-200.0477675 372.27270679 -200.0477675 372.27270679 -207.6484375 381.65625 C-208.21820313 382.3678125 -208.78796875 383.079375 -209.375 383.8125 C-209.92542969 384.43253906 -210.47585937 385.05257813 -211.04296875 385.69140625 C-213.32744832 389.32915525 -213.2290083 393.42180073 -213.65234375 397.62109375 C-214.48647061 401.30477831 -215.78509473 403.10464838 -218.375 405.8125 C-220.89975462 407.07487731 -222.68700466 406.91106404 -225.5 406.875 C-226.36093262 406.8639624 -227.22186523 406.8529248 -228.10888672 406.84155273 C-228.8567041 406.83196533 -229.60452148 406.82237793 -230.375 406.8125 C-232.0828271 412.7462023 -233.6043303 418.71133802 -234.99191284 424.72698975 C-235.78803971 428.16576046 -236.61064707 431.59801186 -237.43432617 435.03027344 C-237.85504785 436.80996049 -238.26479337 438.59227618 -238.66381836 440.37695312 C-239.249976 442.98591527 -239.87669491 445.5822469 -240.51171875 448.1796875 C-240.6797551 448.97245087 -240.84779144 449.76521423 -241.0209198 450.58200073 C-242.156407 455.03574059 -243.36330678 457.22182546 -247.30126953 459.71826172 C-248.64502728 460.44320998 -250.00329431 461.14193429 -251.375 461.8125 C-252.7230022 462.5253879 -254.07070493 463.23884265 -255.41796875 463.953125 C-256.79931166 464.65657903 -258.18082651 465.3596955 -259.5625 466.0625 C-276.33158095 474.78198163 -292.23136681 486.68863981 -305.0625 500.6484375 C-305.495625 501.03257812 -305.92875 501.41671875 -306.375 501.8125 C-309.71692692 501.56796876 -310.98043557 501.20706443 -313.375 498.8125 C-313.64534643 492.32506066 -311.38768163 485.88970665 -309.5625 479.75 C-307.32324871 471.83074595 -305.45345144 463.9253941 -304.0625 455.8125 C-303.80666138 454.32302856 -303.80666138 454.32302856 -303.5456543 452.8034668 C-302.60072266 446.77714206 -302.30121059 441.00345054 -302.36035156 434.91040039 C-302.42772469 421.81194166 -302.42772469 421.81194166 -297.41210938 416.36816406 C-295.40734948 414.49681004 -293.31086617 412.76784221 -291.1105957 411.13085938 C-287.7089334 408.54695497 -284.56879618 405.64592845 -281.375 402.8125 C-280.31019409 401.88014526 -280.31019409 401.88014526 -279.22387695 400.92895508 C-277.06975986 399.03326403 -274.9397855 397.11321199 -272.8125 395.1875 C-271.70938477 394.22457031 -271.70938477 394.22457031 -270.58398438 393.2421875 C-269.89498047 392.613125 -269.20597656 391.9840625 -268.49609375 391.3359375 C-267.8714624 390.77825684 -267.24683105 390.22057617 -266.60327148 389.64599609 C-265.09900831 387.81780265 -265.09900831 387.81780265 -265.61743164 385.21728516 C-266.2990522 382.83289449 -266.2990522 382.83289449 -267.375 380.8125 C-267.92221842 377.70330446 -268.01963931 374.91092766 -267.375 371.8125 C-265.4191046 369.21180392 -263.19651069 367.41823779 -260.375 365.8125 C-259.67890625 365.7196875 -258.9828125 365.626875 -258.265625 365.53125 C-257.64171875 365.2940625 -257.0178125 365.056875 -256.375 364.8125 C-255.6762023 362.82349869 -255.01697125 360.82056309 -254.375 358.8125 C-253.28784564 356.34710666 -252.17787284 353.90969396 -251.0234375 351.4765625 C-250.6924556 350.77285522 -250.36147369 350.06914795 -250.02046204 349.34411621 C-248.93454827 347.03987974 -247.84283857 344.73845959 -246.75 342.4375 C-246.37428864 341.64438416 -245.99857727 340.85126831 -245.61148071 340.03411865 C-235.12370216 317.90929187 -224.37618005 295.92396658 -212.50390625 274.50390625 C-209.04131724 268.24508776 -205.70576391 261.92044166 -202.35888672 255.59933472 C-196.41741232 244.38889123 -190.36003628 233.27146401 -183.88427734 222.35839844 C-182.15046284 219.43374337 -180.4288913 216.50202089 -178.70703125 213.5703125 C-165.42631394 191.0053673 -151.80786468 168.66283116 -137.375 146.8125 C-136.88080566 146.06097656 -136.38661133 145.30945313 -135.87744141 144.53515625 C-120.20700571 120.71733236 -103.60311888 97.52615885 -86.375 74.8125 C-85.95154297 74.25256348 -85.52808594 73.69262695 -85.09179688 73.11572266 C-74.3547644 58.93722454 -63.0612796 45.21671853 -51.375 31.8125 C-50.64152344 30.96558594 -49.90804688 30.11867188 -49.15234375 29.24609375 C-17.84215996 -6.27779702 -17.84215996 -6.27779702 0 0 Z M-39.375 31.8125 C-40.37149058 32.9615534 -41.37042934 34.10848583 -42.37109375 35.25390625 C-48.84471851 42.66482822 -55.20407152 50.14622708 -61.375 57.8125 C-62.28361288 58.92728004 -63.19248139 60.04185176 -64.1015625 61.15625 C-72.19966995 71.12909508 -79.82258957 81.42286154 -87.375 91.8125 C-88.44659673 93.27996095 -89.51821084 94.74740921 -90.58984375 96.21484375 C-117.31887002 132.91973109 -141.96339857 170.92479851 -165.375 209.8125 C-166.257323 211.13785767 -166.257323 211.13785767 -167.1574707 212.48999023 C-167.55925537 213.25641846 -167.96104004 214.02284668 -168.375 214.8125 C-168.045 215.8025 -167.715 216.7925 -167.375 217.8125 C-165.02853706 218.95100261 -162.73551405 219.9294748 -160.3125 220.875 C-146.29964788 226.68640295 -133.13768125 235.04981875 -122.375 245.8125 C-121.385 245.8125 -120.395 245.8125 -119.375 245.8125 C-117.93084923 244.24335722 -117.93084923 244.24335722 -116.66015625 242.10546875 C-116.14557861 241.30189941 -115.63100098 240.49833008 -115.10083008 239.67041016 C-114.55193115 238.7891748 -114.00303223 237.90793945 -113.4375 237 C-112.85830811 236.08782715 -112.27911621 235.1756543 -111.68237305 234.23583984 C-110.48101102 232.34122693 -109.28419684 230.4437231 -108.09179688 228.54345703 C-106.56988241 226.12250492 -105.03225448 223.71298814 -103.484375 221.30859375 C-95.26522239 208.49528569 -87.47954652 195.41897654 -79.68103027 182.34736633 C-77.80141101 179.19716543 -75.91769125 176.04953742 -74.02612305 172.90649414 C-69.80462221 165.89176418 -65.61467672 158.86449768 -61.5625 151.75 C-61.06169922 150.87134277 -60.56089844 149.99268555 -60.04492188 149.08740234 C-54.35583145 139.06757174 -48.8182148 128.96780486 -43.375 118.8125 C-42.89595215 117.91901855 -42.4169043 117.02553711 -41.92333984 116.10498047 C-30.45046328 94.61517615 -19.44197578 72.79674758 -10.1875 50.25 C-9.75429443 49.19973633 -9.32108887 48.14947266 -8.87475586 47.06738281 C-1.39793837 29.92151635 -1.39793837 29.92151635 -1.3125 11.875 C-3.15022789 8.48303274 -3.15022789 8.48303274 -7 7.5625 C-19.99071997 7.18458815 -31.80843265 22.77173066 -39.375 31.8125 Z M-174.375 223.8125 C-175.035 225.1325 -175.695 226.4525 -176.375 227.8125 C-175.39402344 228.28558594 -174.41304687 228.75867188 -173.40234375 229.24609375 C-158.64090594 236.44333195 -143.66141438 244.02230184 -132.21484375 256.08984375 C-131.60769531 256.65832031 -131.00054687 257.22679687 -130.375 257.8125 C-128.15641747 257.67608623 -128.15641747 257.67608623 -126.375 256.8125 C-127.00253322 251.01287844 -129.98338293 248.92004039 -134.25390625 245.2734375 C-145.50100733 236.40526018 -159.88014972 225.87110714 -174.375 223.8125 Z M-180.375 235.8125 C-184.29014308 241.92184414 -187.82034582 248.16978599 -191.25 254.5625 C-191.81243408 255.60688232 -192.37486816 256.65126465 -192.9543457 257.72729492 C-194.15354213 259.95541012 -195.35151068 262.18418655 -196.54833984 264.41357422 C-198.33519008 267.73842439 -200.12971605 271.05902672 -201.92578125 274.37890625 C-216.03685789 300.51781398 -229.93328302 326.83087312 -242.375 353.8125 C-242.76204102 354.6384668 -243.14908203 355.46443359 -243.54785156 356.31542969 C-243.91620117 357.11625977 -244.28455078 357.91708984 -244.6640625 358.7421875 C-244.9935791 359.45358887 -245.3230957 360.16499023 -245.66259766 360.89794922 C-246.5493693 362.94064376 -246.5493693 362.94064376 -246.375 365.8125 C-245.48039062 366.30878906 -244.58578125 366.80507813 -243.6640625 367.31640625 C-242.44203867 368.00141087 -241.22073478 368.68770081 -240 369.375 C-239.36457275 369.73198975 -238.72914551 370.08897949 -238.07446289 370.45678711 C-233.28831789 373.18785057 -228.88311875 376.23501253 -224.55859375 379.66015625 C-222.42883991 380.98381555 -222.42883991 380.98381555 -219.953125 380.9140625 C-216.13308052 379.28186168 -214.12075192 376.3560525 -211.6875 373.125 C-211.1620459 372.44727539 -210.6365918 371.76955078 -210.09521484 371.07128906 C-205.94898114 365.6825644 -201.98087343 360.17039199 -198.0703125 354.609375 C-194.90793891 350.12594921 -191.63893092 345.72223716 -188.375 341.3125 C-184.31447624 335.81936134 -180.27215671 330.31637927 -176.3125 324.75 C-175.92175293 324.20069824 -175.53100586 323.65139648 -175.12841797 323.08544922 C-174.73154785 322.52744629 -174.33467773 321.96944336 -173.92578125 321.39453125 C-166.83623686 311.42758161 -159.68508601 301.50979566 -152.3125 291.75 C-150.32753304 289.1084696 -148.34940567 286.4619322 -146.375 283.8125 C-145.81232422 283.0592041 -145.24964844 282.3059082 -144.66992188 281.52978516 C-142.95293968 279.21761444 -141.25549597 276.89227206 -139.5625 274.5625 C-138.76090454 273.48923462 -138.76090454 273.48923462 -137.94311523 272.39428711 C-137.46044189 271.72276611 -136.97776855 271.05124512 -136.48046875 270.359375 C-136.04887451 269.76995117 -135.61728027 269.18052734 -135.17260742 268.57324219 C-134.1903115 266.81159203 -134.1903115 266.81159203 -134.63354492 264.71630859 C-139.38325941 252.52063075 -161.00697459 243.17423204 -172.1328125 238.08984375 C-174.92190814 236.99100728 -177.42273797 236.26369476 -180.375 235.8125 Z M-258.375 374.8125 C-258.16666336 378.74274255 -257.86178607 380.36065073 -254.92578125 383.0859375 C-253.85714844 383.77945312 -252.78851563 384.47296875 -251.6875 385.1875 C-251.11241699 385.56326172 -250.53733398 385.93902344 -249.94482422 386.32617188 C-248.10305714 387.51389528 -246.24282495 388.666258 -244.375 389.8125 C-243.75705566 390.19825195 -243.13911133 390.58400391 -242.50244141 390.98144531 C-233.58711648 396.62795302 -233.58711648 396.62795302 -223.375 398.8125 C-222.715 398.1525 -222.055 397.4925 -221.375 396.8125 C-221.25698276 393.86513236 -221.25698276 393.86513236 -222.375 390.8125 C-224.82858907 388.40453937 -224.82858907 388.40453937 -228.0625 386.4375 C-228.63685791 386.06173828 -229.21121582 385.68597656 -229.80297852 385.29882812 C-231.6448789 384.109895 -233.5053353 382.95721232 -235.375 381.8125 C-235.99826172 381.42674805 -236.62152344 381.04099609 -237.26367188 380.64355469 C-247.42630501 373.42377431 -247.42630501 373.42377431 -258.375 374.8125 Z M-259.8737793 392.98657227 C-260.39367432 393.52854248 -260.91356934 394.0705127 -261.44921875 394.62890625 C-262.32042358 395.52258911 -262.32042358 395.52258911 -263.20922852 396.43432617 C-264.1265979 397.39495972 -264.1265979 397.39495972 -265.0625 398.375 C-266.33420717 399.67617257 -267.60762843 400.97567221 -268.8828125 402.2734375 C-269.49157227 402.89444336 -270.10033203 403.51544922 -270.72753906 404.15527344 C-273.78714689 407.23301765 -277.04259706 410.03751719 -280.375 412.8125 C-282.08765676 414.24307212 -283.79880974 415.6753685 -285.50756836 417.1105957 C-286.69277773 418.10503013 -287.88100756 419.09587788 -289.07250977 420.08276367 C-293.15306928 423.31824829 -293.15306928 423.31824829 -294.59277344 428.07714844 C-294.63950195 429.0159082 -294.68623047 429.95466797 -294.734375 430.921875 C-295.54844942 444.92588055 -297.39152843 458.00614049 -300.85595703 471.59130859 C-301.57102105 474.65135206 -301.99941789 477.6939025 -302.375 480.8125 C-299.70092118 477.57102744 -297.34282118 474.3088824 -295.16796875 470.71484375 C-294.58418457 469.75400879 -294.00040039 468.79317383 -293.39892578 467.80322266 C-289.70501175 461.66215113 -289.70501175 461.66215113 -286.01611328 455.51806641 C-284.67462101 453.30646013 -283.3067209 451.12104141 -281.90234375 448.94921875 C-277.99991181 442.77103594 -276.7863389 439.11189767 -277.375 431.8125 C-275.375 429.8125 -275.375 429.8125 -271.875 429.5625 C-268.375 429.8125 -268.375 429.8125 -266.375 431.8125 C-266.1796875 433.9765625 -266.1796875 433.9765625 -266.25 436.4375 C-266.26804687 437.25476563 -266.28609375 438.07203125 -266.3046875 438.9140625 C-266.32789063 439.54054688 -266.35109375 440.16703125 -266.375 440.8125 C-267.41398437 440.97105469 -268.45296875 441.12960937 -269.5234375 441.29296875 C-274.69177182 442.79207125 -276.44864559 446.67268872 -279 451.125 C-280.0269893 452.83875412 -281.0543475 454.55228723 -282.08203125 456.265625 C-282.6126416 457.16603516 -283.14325195 458.06644531 -283.68994141 458.99414062 C-285.43821499 461.91823077 -287.24583435 464.79726698 -289.07421875 467.671875 C-289.67733887 468.62408936 -290.28045898 469.57630371 -290.90185547 470.55737305 C-292.08092333 472.41786282 -293.2634759 474.27614933 -294.44970703 476.13208008 C-294.97806152 476.97665771 -295.50641602 477.82123535 -296.05078125 478.69140625 C-296.7610144 479.81397827 -296.7610144 479.81397827 -297.4855957 480.95922852 C-297.77909912 481.57080811 -298.07260254 482.1823877 -298.375 482.8125 C-298.045 483.4725 -297.715 484.1325 -297.375 484.8125 C-296.82457031 484.25304687 -296.27414062 483.69359375 -295.70703125 483.1171875 C-283.85268531 471.68555467 -269.56590011 462.42487932 -254.7734375 455.2421875 C-251.56377258 453.32893447 -249.88804571 451.20083048 -248.58990479 447.68798828 C-248.3981366 446.92728027 -248.20636841 446.16657227 -248.00878906 445.3828125 C-247.78555969 444.5151123 -247.56233032 443.64741211 -247.33233643 442.75341797 C-247.10407166 441.82416504 -246.87580688 440.89491211 -246.640625 439.9375 C-246.39834167 438.97602051 -246.15605835 438.01454102 -245.90643311 437.02392578 C-245.39767256 434.99431918 -244.89364856 432.96352018 -244.39404297 430.93164062 C-243.62697898 427.8205265 -242.83995773 424.71494424 -242.05078125 421.609375 C-241.55868827 419.63571736 -241.06776301 417.66176812 -240.578125 415.6875 C-240.34176331 414.75824707 -240.10540161 413.82899414 -239.86187744 412.87158203 C-239.65125671 412.00388184 -239.44063599 411.13618164 -239.22363281 410.2421875 C-239.035047 409.48147949 -238.84646118 408.72077148 -238.65216064 407.93701172 C-238.3441259 405.57584159 -238.57394829 404.04534923 -239.375 401.8125 C-240.9032383 400.3649909 -240.9032383 400.3649909 -242.8671875 399.234375 C-243.57230469 398.79609375 -244.27742188 398.3578125 -245.00390625 397.90625 C-245.74511719 397.4628125 -246.48632812 397.019375 -247.25 396.5625 C-247.98347656 396.10359375 -248.71695313 395.6446875 -249.47265625 395.171875 C-254.48948995 391.60159336 -254.48948995 391.60159336 -259.8737793 392.98657227 Z " fill="#201F20" transform="translate(424.375,27.1875)"/>
<path d="M0 0 C3.52005265 2.12396397 6.02143922 4.26016032 8.1875 7.8125 C8.765 8.6375 9.3425 9.4625 9.9375 10.3125 C12.85654013 18.48581236 11.89448265 26.86554866 8.3359375 34.6640625 C6.809978 37.51874864 5.03838938 40.15955855 3.1875 42.8125 C2.49416904 44.46825191 1.82302168 46.13371043 1.1875 47.8125 C31.35672447 57.13013155 62.59213732 57.01136662 92.5078125 46.6640625 C95.5215769 45.70633562 98.04437141 45.66282721 101.1875 45.8125 C100.58481676 49.46723298 100.23935786 49.77205087 97.0625 52.25 C72.1417055 66.50925741 38.37432684 65.19741438 11.25 58.875 C10.53134766 58.71088623 9.81269531 58.54677246 9.07226562 58.37768555 C5.13517941 57.43331689 1.75504704 56.12325008 -1.875 54.375 C-4.20795613 53.49248232 -4.20795613 53.49248232 -6.8125 53.8125 C-10.97458459 56.09373204 -14.64697452 58.78666673 -18.4375 61.62890625 C-41.88106525 79.1010966 -73.15787353 87.40877365 -101.8125 90.8125 C-102.68390625 90.92335938 -103.5553125 91.03421875 -104.453125 91.1484375 C-125.70869714 93.39545513 -159.58262114 95.1922276 -177.8125 81.8125 C-177.8125 80.8225 -177.8125 79.8325 -177.8125 78.8125 C-171.05909963 78.44413271 -164.88278374 79.37262495 -158.28149414 80.6574707 C-135.59589968 85.01121813 -110.42195639 84.26046169 -87.8125 79.8125 C-86.83829102 79.62445801 -85.86408203 79.43641602 -84.86035156 79.24267578 C-61.88468593 74.65119538 -34.68836085 66.87389378 -16.8125 50.8125 C-16.8125 50.1525 -16.8125 49.4925 -16.8125 48.8125 C-17.50214844 48.4721875 -18.19179688 48.131875 -18.90234375 47.78125 C-28.93176069 42.60832714 -37.54488196 36.63396002 -41.8125 25.8125 C-43.67623098 19.75537432 -42.57361098 14.37736459 -39.8125 8.8125 C-30.49842776 -2.51542569 -13.37613355 -6.33921083 0 0 Z M-32.75 11.125 C-35.39002475 14.56503226 -35.88602432 16.47456527 -35.8125 20.8125 C-32.55784778 30.80485331 -23.72193254 36.88699475 -15.125 42.1875 C-11.76739133 43.83462878 -10.43458453 44.40601155 -6.8125 43.8125 C-0.58806439 37.50826393 4.22049304 29.61914321 4.5625 20.6875 C4.38318072 15.74874816 3.38107732 12.91617661 -0.2421875 9.44140625 C-6.01821095 4.36942546 -10.86767174 4.47004265 -18.2890625 4.53125 C-24.47478761 5.02501076 -27.98556105 7.37427146 -32.75 11.125 Z " fill="#262626" transform="translate(311.8125,456.1875)"/>
<path d="M0 0 C-1.56127902 5.22116037 -4.90444625 8.7528861 -8.375 12.8125 C-14.08721124 19.62034407 -19.51815807 26.56631021 -24.8046875 33.70703125 C-27.80039448 37.75171119 -30.86143491 41.74421996 -33.92700195 45.73608398 C-40.50401812 54.30688646 -46.89670076 62.96853675 -53.078125 71.828125 C-56.15121655 76.23191925 -59.28848586 80.58778937 -62.4375 84.9375 C-62.97713379 85.68338379 -63.51676758 86.42926758 -64.07275391 87.19775391 C-66.26246327 90.22288144 -68.45403127 93.24666036 -70.64550781 96.27050781 C-72.28532952 98.53390997 -73.92423235 100.79797277 -75.5625 103.0625 C-76.09689697 103.80097168 -76.63129395 104.53944336 -77.18188477 105.30029297 C-80.42831274 109.7958012 -83.6386724 114.3148552 -86.82446289 118.85351562 C-98.19391254 135.05108773 -98.19391254 135.05108773 -101 138 C-101.66 138 -102.32 138 -103 138 C-102.49687488 132.96253151 -100.76438606 129.35776367 -98.109375 125.14453125 C-97.71071228 124.49700394 -97.31204956 123.84947662 -96.90130615 123.18232727 C-92.18306459 115.57656612 -87.23385753 108.12078728 -82.25 100.6875 C-81.76822296 99.96699463 -81.28644592 99.24648926 -80.79006958 98.50415039 C-73.42595802 87.49659723 -65.95715922 76.59029373 -58 66 C-57.47680176 65.30100586 -56.95360352 64.60201172 -56.41455078 63.88183594 C-48.9860056 53.98452942 -41.29470481 44.31731846 -33.43994141 34.75585938 C-32.15634299 33.19064408 -30.88036928 31.619183 -29.60546875 30.046875 C-5.22532895 0 -5.22532895 0 0 0 Z " fill="#2C2C2C" transform="translate(402,52)"/>
<path d="M0 0 C133.32 0 266.64 0 404 0 C404 0.33 404 0.66 404 1 C270.68 1 137.36 1 0 1 C0 0.67 0 0.34 0 0 Z " fill="#FDFEFE" transform="translate(86,574)"/>
<path d="M0 0 C0.33 0 0.66 0 1 0 C1 133.32 1 266.64 1 404 C0.67 404 0.34 404 0 404 C0 270.68 0 137.36 0 0 Z " fill="#FDFEFE" transform="translate(574,85)"/>
<path d="M0 0 C1.9375 1.0625 1.9375 1.0625 3 3 C3.64458805 9.01615509 3.64458805 9.01615509 1.8125 11.8125 C0 13 0 13 -2.41333008 13.78271484 C-5.59151047 15.27836444 -6.44230463 16.65294254 -8.19921875 19.6640625 C-8.76431152 20.61466553 -9.3294043 21.56526855 -9.91162109 22.54467773 C-10.49766113 23.56118408 -11.08370117 24.57769043 -11.6875 25.625 C-12.92234128 27.71273417 -14.15802402 29.79997085 -15.39453125 31.88671875 C-16.00119629 32.91974121 -16.60786133 33.95276367 -17.23291016 35.01708984 C-19.71149806 39.20103389 -22.2820608 43.32377114 -24.875 47.4375 C-25.5086145 48.44707764 -25.5086145 48.44707764 -26.1550293 49.47705078 C-27.101938 50.98558956 -28.05071503 52.49295542 -29 54 C-27.35 52.68 -25.7 51.36 -24 50 C-23.34 50.33 -22.68 50.66 -22 51 C-23.09463822 52.17561146 -24.20107186 53.3402489 -25.3125 54.5 C-25.92738281 55.1496875 -26.54226562 55.799375 -27.17578125 56.46875 C-29 58 -29 58 -32 58 C-31.67 56.35 -31.34 54.7 -31 53 C-31.99 53 -32.98 53 -34 53 C-34 53.66 -34 54.32 -34 55 C-34.66 55 -35.32 55 -36 55 C-35.505 52.03 -35.505 52.03 -35 49 C-34.01 49 -33.02 49 -32 49 C-30.48342855 47.13384781 -30.48342855 47.13384781 -29.14453125 44.64453125 C-28.60795898 43.71753418 -28.07138672 42.79053711 -27.51855469 41.83544922 C-26.67405762 40.33908936 -26.67405762 40.33908936 -25.8125 38.8125 C-24.64819439 36.78975466 -23.4828326 34.76761689 -22.31640625 32.74609375 C-21.46780029 31.26665283 -21.46780029 31.26665283 -20.60205078 29.75732422 C-17.98301599 25.24964684 -15.19442705 20.85513147 -12.390625 16.4609375 C-10.33933035 12.83083741 -9.97857508 10.61061035 -10.125 6.4375 C-10 3 -10 3 -8.9375 1.0625 C-5.88023824 -0.6140629 -3.4093712 -0.36528977 0 0 Z " fill="#363737" transform="translate(156,456)"/>
<path d="M0 0 C-1.56126644 5.22111831 -4.90438036 8.75295757 -8.375 12.8125 C-14.68756697 20.33415009 -20.65036107 28.04656576 -26.47949219 35.94580078 C-29.21739611 39.64469666 -31.98588956 43.32067282 -34.75 47 C-35.76574944 48.35407333 -36.78138654 49.70823094 -37.796875 51.0625 C-38.52390625 52.031875 -39.2509375 53.00125 -40 54 C-40.33 53.34 -40.66 52.68 -41 52 C-40.67 51.34 -40.34 50.68 -40 50 C-42.97 52.31 -45.94 54.62 -49 57 C-49 53.55131187 -48.56512796 53.10528943 -46.4375 50.55859375 C-45.89206543 49.89770752 -45.34663086 49.23682129 -44.78466797 48.5559082 C-44.19572754 47.8568335 -43.60678711 47.15775879 -43 46.4375 C-41.79395931 44.98202891 -40.58822907 43.52630052 -39.3828125 42.0703125 C-38.50351074 41.01505371 -38.50351074 41.01505371 -37.60644531 39.93847656 C-35.66066747 37.59053187 -33.76348187 35.20668413 -31.875 32.8125 C-23.64809681 22.51593563 -15.0244055 12.60367477 -6 3 C-5.46375 2.39414062 -4.9275 1.78828125 -4.375 1.1640625 C-3 0 -3 0 0 0 Z " fill="#424242" transform="translate(402,52)"/>
<path d="M0 0 C0.99 0.33 1.98 0.66 3 1 C-2.59898114 12.70488604 -11.38591011 23.38066056 -19.1875 33.6875 C-20.01568237 34.79194458 -20.01568237 34.79194458 -20.8605957 35.91870117 C-22.1901514 37.65218836 -23.58865078 39.33243004 -25 41 C-25.66 41 -26.32 41 -27 41 C-26.49862341 35.93223969 -24.732674 32.30031728 -22.0625 28.0625 C-21.66498535 27.42006348 -21.2674707 26.77762695 -20.85791016 26.11572266 C-19.58325444 24.06981326 -18.29176301 22.0351406 -17 20 C-16.57412598 19.31502441 -16.14825195 18.63004883 -15.70947266 17.92431641 C-14.44703853 15.89741096 -13.16468696 13.88465177 -11.875 11.875 C-11.492229 11.26019775 -11.10945801 10.64539551 -10.71508789 10.01196289 C-7.76615653 5.51442378 -4.64336604 2.75599324 0 0 Z " fill="#323232" transform="translate(326,149)"/>
<path d="M0 0 C2.52652208 1.7144257 2.98057694 2.94043594 3.9375 5.875 C4 9 4 9 2.3125 11.8125 C-0.95974955 14.9078712 -0.95974955 14.9078712 -4 15 C-7.06212707 14.05219877 -8.72204978 13.27795022 -11 11 C-11.33946509 7.33377703 -11.49005781 4.88677128 -9.6875 1.625 C-6.5414595 -1.40452049 -3.9587775 -1.18763325 0 0 Z " fill="#222223" transform="translate(111,534)"/>
<path d="M0 0 C1 1 1 1 1.25 4.375 C1 8 1 8 -0.1875 9.8125 C-3.89208979 12.23964503 -6.53985975 13 -11 13 C-10.91266424 11.39482903 -10.80447776 9.79078338 -10.6875 8.1875 C-10.62949219 7.29417969 -10.57148438 6.40085937 -10.51171875 5.48046875 C-9.26546494 -0.56053255 -5.52486677 -0.40924939 0 0 Z " fill="#161616" transform="translate(158,458)"/>
<path d="M0 0 C1 2 1 2 0.5 3.875 C-0.19243211 5.97678998 -0.19243211 5.97678998 0.63598633 7.87597656 C1 10 1 10 -0.0480957 12.01464844 C-0.58523193 12.7059082 -1.12236816 13.39716797 -1.67578125 14.109375 C-2.25650391 14.86347656 -2.83722656 15.61757812 -3.43554688 16.39453125 C-4.36463867 17.56048828 -4.36463867 17.56048828 -5.3125 18.75 C-5.92029297 19.54277344 -6.52808594 20.33554688 -7.15429688 21.15234375 C-10.49092177 25.42704952 -10.49092177 25.42704952 -12 27 C-12.66 27 -13.32 27 -14 27 C-13.50481829 21.56139405 -11.53260764 18.00665051 -8.6875 13.5 C-8.29626953 12.86191406 -7.90503906 12.22382813 -7.50195312 11.56640625 C-5.08810074 7.65140188 -2.57142199 3.81300104 0 0 Z " fill="#3C3C3C" transform="translate(313,163)"/>
<path d="M0 0 C0.66 0 1.32 0 2 0 C1.82286145 7.79409615 -2.54017116 15.54017116 -8 21 C-10.125 20.625 -10.125 20.625 -12 20 C-9.39751663 12.25720787 -5.81979067 5.81979067 0 0 Z " fill="#222222" transform="translate(289,203)"/>
<path d="M0 0 C0.47618831 4.65133934 -0.92584851 6.99723976 -3.5 10.8125 C-4.1496875 11.78832031 -4.799375 12.76414062 -5.46875 13.76953125 C-5.9740625 14.50558594 -6.479375 15.24164063 -7 16 C-5.35 14.68 -3.7 13.36 -2 12 C-1.34 12.33 -0.68 12.66 0 13 C-1.09463822 14.17561146 -2.20107186 15.3402489 -3.3125 16.5 C-4.23482422 17.47453125 -4.23482422 17.47453125 -5.17578125 18.46875 C-7 20 -7 20 -10 20 C-9.67 18.35 -9.34 16.7 -9 15 C-9.99 15 -10.98 15 -12 15 C-12 15.66 -12 16.32 -12 17 C-12.66 17 -13.32 17 -14 17 C-13.67 15.02 -13.34 13.04 -13 11 C-12.01 11 -11.02 11 -10 11 C-8.36929182 8.8029888 -8.36929182 8.8029888 -6.9375 6.0625 C-3.58649789 0 -3.58649789 0 0 0 Z " fill="#373737" transform="translate(134,494)"/>
<path d="M0 0 C0.99 0 1.98 0 3 0 C1.42611782 5.130059 -1.76968615 8.74486315 -5.125 12.8125 C-5.68832031 13.50537109 -6.25164062 14.19824219 -6.83203125 14.91210938 C-8.215914 16.61264326 -9.60529551 18.30833994 -11 20 C-11.33 19.01 -11.66 18.02 -12 17 C-13.98 18.32 -15.96 19.64 -18 21 C-16.63903054 17.98346097 -15.08428716 15.79694048 -12.8125 13.3984375 C-12.19632812 12.74359375 -11.58015625 12.08875 -10.9453125 11.4140625 C-10.30335938 10.74117187 -9.66140625 10.06828125 -9 9.375 C-8.35804688 8.694375 -7.71609375 8.01375 -7.0546875 7.3125 C-4.72747637 4.84896688 -2.39641406 2.39641406 0 0 Z " fill="#4A4B4B" transform="translate(399,52)"/>
<path d="M0 0 C0.33 0 0.66 0 1 0 C1.35281338 4.1970092 0.64185432 6.06522073 -2 9.3125 C-2.556875 10.00988281 -3.11375 10.70726563 -3.6875 11.42578125 C-4.120625 11.94527344 -4.55375 12.46476562 -5 13 C-5.33 12.34 -5.66 11.68 -6 11 C-5.67 10.34 -5.34 9.68 -5 9 C-9.455 12.465 -9.455 12.465 -14 16 C-14 11.86783592 -12.27977548 10.47532416 -9.6875 7.3125 C-8.88699219 6.31863281 -8.08648437 5.32476562 -7.26171875 4.30078125 C-6.14216797 3.16189453 -6.14216797 3.16189453 -5 2 C-4.01 2 -3.02 2 -2 2 C-1.34 1.34 -0.68 0.68 0 0 Z " fill="#393939" transform="translate(367,93)"/>
<path d="M0 0 C0.33 0.66 0.66 1.32 1 2 C-0.134375 2.309375 -1.26875 2.61875 -2.4375 2.9375 C-5.78775099 3.62924531 -5.78775099 3.62924531 -7 5 C-7.3931648 6.67884238 -7.74085452 8.36850045 -8.0625 10.0625 C-8.32740234 11.44115234 -8.32740234 11.44115234 -8.59765625 12.84765625 C-8.73042969 13.55792969 -8.86320313 14.26820313 -9 15 C-8.01 15 -7.02 15 -6 15 C-6.99 17.475 -6.99 17.475 -8 20 C-8.33 18.68 -8.66 17.36 -9 16 C-9.66 16 -10.32 16 -11 16 C-10.835 15.154375 -10.67 14.30875 -10.5 13.4375 C-9.89187215 9.97008054 -9.89187215 9.97008054 -10.125 6.3125 C-10 3 -10 3 -8.9375 1.0625 C-5.98831309 -0.55479605 -3.29132441 -0.18630138 0 0 Z " fill="#454444" transform="translate(156,456)"/>
<path d="M0 0 C-0.36969853 2.65614176 -0.70475592 3.74758254 -2.77734375 5.51953125 C-3.49019531 5.94621094 -4.20304687 6.37289063 -4.9375 6.8125 C-5.64777344 7.25207031 -6.35804688 7.69164062 -7.08984375 8.14453125 C-7.72019531 8.42683594 -8.35054688 8.70914062 -9 9 C-9.66 8.67 -10.32 8.34 -11 8 C-9.35 7.34 -7.7 6.68 -6 6 C-6 5.01 -6 4.02 -6 3 C-7.85625 3.5259375 -7.85625 3.5259375 -9.75 4.0625 C-12.903292 4.95593273 -14.86774164 5.00881294 -18 4 C-16.1291122 3.32187886 -14.25305707 2.6580054 -12.375 2 C-11.33085937 1.62875 -10.28671875 1.2575 -9.2109375 0.875 C-5.98225494 -0.00483564 -3.32755706 -0.15988262 0 0 Z " fill="#555657" transform="translate(413,502)"/>
<path d="M0 0 C-0.49230769 6.4 -0.49230769 6.4 -3.0625 9.4375 C-4.0215625 10.2109375 -4.0215625 10.2109375 -5 11 C-5.33 10.01 -5.66 9.02 -6 8 C-7.32 8.99 -8.64 9.98 -10 11 C-9.91563067 8.13144287 -9.41307819 6.44317685 -7.4453125 4.33203125 C-2.48559976 0 -2.48559976 0 0 0 Z " fill="#333333" transform="translate(373,86)"/>
<path d="M0 0 C0.99 0 1.98 0 3 0 C3.33 0.66 3.66 1.32 4 2 C4.66 2 5.32 2 6 2 C6 3.32 6 4.64 6 6 C7.65 4.35 9.3 2.7 11 1 C11.66 1.33 12.32 1.66 13 2 C11.90536178 3.17561146 10.79892814 4.3402489 9.6875 5.5 C9.07261719 6.1496875 8.45773438 6.799375 7.82421875 7.46875 C6 9 6 9 3 9 C3.33 7.35 3.66 5.7 4 4 C3.01 4 2.02 4 1 4 C1 4.66 1 5.32 1 6 C0.34 6 -0.32 6 -1 6 C-0.67 4.02 -0.34 2.04 0 0 Z " fill="#5F5F5F" transform="translate(121,505)"/>
<path d="M0 0 C-0.46588495 5.70709064 -1.93757784 9.15939723 -5 14 C-5.33 13.34 -5.66 12.68 -6 12 C-5.0625 9.375 -5.0625 9.375 -4 7 C-5.98 7.99 -5.98 7.99 -8 9 C-6.68994234 5.06982701 -4.75047804 0 0 0 Z " fill="#505152" transform="translate(291,203)"/>
<path d="M0 0 C-0.53069061 3.82097239 -1.49701566 6.06171403 -4 9 C-5.32 8.67 -6.64 8.34 -8 8 C-7.65978036 4.82461668 -6.97533396 3.97723135 -4.5625 1.75 C-2 0 -2 0 0 0 Z " fill="#282828" transform="translate(387,69)"/>
<path d="M0 0 C6.93302093 -0.22731216 13.2168636 0.57997892 20 2 C20 2.33 20 2.66 20 3 C15.05 3 10.1 3 5 3 C5 3.66 5 4.32 5 5 C2.525 4.01 2.525 4.01 0 3 C0 2.01 0 1.02 0 0 Z " fill="#5B5B5B" transform="translate(134,535)"/>
<path d="M0 0 C0.33 0.66 0.66 1.32 1 2 C1.99 2 2.98 2 4 2 C2.8141763 5.37503669 1.72426311 7.64722731 -1 10 C-1 9.01 -1 8.02 -1 7 C-1.99 7.33 -2.98 7.66 -4 8 C-2.87548273 5.0280615 -1.77706209 2.66559313 0 0 Z " fill="#454544" transform="translate(135,487)"/>
<path d="M0 0 C-0.49831724 3.68754757 -1.10067643 5.60490662 -4 8 C-4 7.01 -4 6.02 -4 5 C-5.98 6.32 -7.96 7.64 -10 9 C-8.5124715 4.98367305 -4.56813239 0 0 0 Z " fill="#424242" transform="translate(391,64)"/>
<path d="M0 0 C0.99 0.33 1.98 0.66 3 1 C2.43628586 4.26954202 1.50037734 5.82575883 -1 8 C-1 6.68 -1 5.36 -1 4 C-2.98 5.32 -4.96 6.64 -7 8 C-5.51218185 4.21282653 -3.38011591 2.22592999 0 0 Z " fill="#393A3A" transform="translate(374,82)"/>
<path d="M0 0 C0.06058594 0.62390625 0.12117188 1.2478125 0.18359375 1.890625 C0.80848559 4.23367434 0.80848559 4.23367434 3.28515625 5.046875 C4.65994141 5.39492188 4.65994141 5.39492188 6.0625 5.75 C6.98160156 5.99234375 7.90070313 6.2346875 8.84765625 6.484375 C9.55792969 6.65453125 10.26820313 6.8246875 11 7 C11 7.33 11 7.66 11 8 C7.04 7.67 3.08 7.34 -1 7 C-1.33 5.35 -1.66 3.7 -2 2 C-1.34 1.34 -0.68 0.68 0 0 Z " fill="#565655" transform="translate(312,500)"/>
<path d="M0 0 C0.125 5.75 0.125 5.75 -1 8 C-2.32 8 -3.64 8 -5 8 C-4.6875 5.125 -4.6875 5.125 -4 2 C-1 0 -1 0 0 0 Z " fill="#31302F" transform="translate(141,481)"/>
<path d="M0 0 C1 3 1 3 -0.4375 6.1875 C-1.2109375 7.5796875 -1.2109375 7.5796875 -2 9 C-2.66 9 -3.32 9 -4 9 C-5 6 -5 6 -4.25 3.375 C-3 1 -3 1 0 0 Z " fill="#1F1F1F" transform="translate(317,162)"/>
<path d="M0 0 C0.33 0.66 0.66 1.32 1 2 C1.99 2.33 2.98 2.66 4 3 C2.71937515 4.7074998 1.38232443 6.37373596 0 8 C-0.66 8 -1.32 8 -2 8 C-1.125 2.25 -1.125 2.25 0 0 Z " fill="#5E5E5E" transform="translate(301,182)"/>
<path d="M0 0 C1.32 1.32 2.64 2.64 4 4 C3.01 5.485 3.01 5.485 2 7 C0.68 7 -0.64 7 -2 7 C-1.125 2.25 -1.125 2.25 0 0 Z " fill="#404040" transform="translate(304,177)"/>
<path d="M0 0 C0.66 0.33 1.32 0.66 2 1 C-0.64960955 4.63094642 -3.01824456 6.89851796 -7 9 C-5.44499019 5.18315774 -2.96404505 2.80804268 0 0 Z " fill="#4B4B4C" transform="translate(279,458)"/>
<path d="M0 0 C1.625 1.6875 1.625 1.6875 3 4 C2.1875 6.75 2.1875 6.75 1 9 C-0.625 7.3125 -0.625 7.3125 -2 5 C-1.1875 2.25 -1.1875 2.25 0 0 Z " fill="#484848" transform="translate(141,477)"/>
<path d="M0 0 C-0.33 2.31 -0.66 4.62 -1 7 C-1.66 6.01 -2.32 5.02 -3 4 C-4.32 4.99 -5.64 5.98 -7 7 C-5.80061288 4.10148113 -3.63852862 0 0 0 Z " fill="#1F1F1F" transform="translate(370,90)"/>
<path d="M0 0 C0.33 0.99 0.66 1.98 1 3 C0.67 3.66 0.34 4.32 0 5 C0.99 5 1.98 5 3 5 C2.34 6.65 1.68 8.3 1 10 C0.67 8.68 0.34 7.36 0 6 C-0.66 6 -1.32 6 -2 6 C-1.34 4.02 -0.68 2.04 0 0 Z " fill="#515151" transform="translate(147,466)"/>
<path d="M0 0 C0.103125 0.639375 0.20625 1.27875 0.3125 1.9375 C0.539375 2.618125 0.76625 3.29875 1 4 C1.99 4.33 2.98 4.66 4 5 C3.34 5.66 2.68 6.32 2 7 C-0.125 6.625 -0.125 6.625 -2 6 C-1.34 4.02 -0.68 2.04 0 0 Z " fill="#535353" transform="translate(279,217)"/>
<path d="M0 0 C2.97 0.495 2.97 0.495 6 1 C6 1.99 6 2.98 6 4 C4.35 4.66 2.7 5.32 1 6 C1.20625 5.38125 1.4125 4.7625 1.625 4.125 C1.74875 3.42375 1.8725 2.7225 2 2 C1.34 1.34 0.68 0.68 0 0 Z " fill="#4D4C4B" transform="translate(293,503)"/>
<path d="M0 0 C-0.66 1.65 -1.32 3.3 -2 5 C-5 5 -5 5 -7 4 C-3.375 0 -3.375 0 0 0 Z " fill="#676969" transform="translate(402,52)"/>
<path d="M0 0 C1 4 1 4 1 4 Z " fill="#FEFFFE" transform="translate(0,486)"/>
<path d="M0 0 C1 4 1 4 1 4 Z " fill="#FDFFFD" transform="translate(0,86)"/>
<path d="M0 0 C4 1 4 1 4 1 Z " fill="#FDFDFD" transform="translate(485,0)"/>
<path d="M0 0 C4 1 4 1 4 1 Z " fill="#FEFFFF" transform="translate(85,0)"/>
<path d="M0 0 C3 1 3 1 3 1 Z " fill="#FDFFFF" transform="translate(79,573)"/>
<path d="" fill="#FDFFFF" transform="translate(0,0)"/>
<path d="" fill="#FDFEFD" transform="translate(0,0)"/>
<path d="M0 0 C3 1 3 1 3 1 Z " fill="#FDFDFD" transform="translate(493,1)"/>
<path d="M0 0 C2 1 2 1 2 1 Z " fill="#FEFFFF" transform="translate(494,573)"/>
<path d="M0 0 C2 1 2 1 2 1 Z " fill="#FDFFFF" transform="translate(75,572)"/>
<path d="M0 0 C2 1 2 1 2 1 Z " fill="#FFFFFF" transform="translate(503,571)"/>
<path d="M0 0 C2 1 2 1 2 1 Z " fill="#FDFFFF" transform="translate(71,571)"/>
<path d="M0 0 C2 1 2 1 2 1 Z " fill="#FFFFFF" transform="translate(506,570)"/>
<path d="M0 0 C2 1 2 1 2 1 Z " fill="#FDFFFF" transform="translate(65,569)"/>
<path d="M0 0 C2 1 2 1 2 1 Z " fill="#FDFFFF" transform="translate(62,568)"/>
<path d="M0 0 C2 1 2 1 2 1 Z " fill="#FEFFFF" transform="translate(57,566)"/>
<path d="M0 0 C2 1 2 1 2 1 Z " fill="#FDFFFF" transform="translate(55,565)"/>
<path d="M0 0 C2 1 2 1 2 1 Z " fill="#FDFFFF" transform="translate(44,559)"/>
<path d="" fill="#FDFFFF" transform="translate(0,0)"/>
<path d="" fill="#FDFFFF" transform="translate(0,0)"/>
<path d="" fill="#FEFFFF" transform="translate(0,0)"/>
<path d="" fill="#FDFFFF" transform="translate(0,0)"/>
<path d="" fill="#FDFFFF" transform="translate(0,0)"/>
<path d="" fill="#FFFFFF" transform="translate(0,0)"/>
<path d="" fill="#FFFFFF" transform="translate(0,0)"/>
<path d="" fill="#FDFFFF" transform="translate(0,0)"/>
<path d="" fill="#FDFFFF" transform="translate(0,0)"/>
<path d="" fill="#FEFFFE" transform="translate(0,0)"/>
<path d="" fill="#FEFFFF" transform="translate(0,0)"/>
<path d="" fill="#FDFFFD" transform="translate(0,0)"/>
<path d="" fill="#FDFFFD" transform="translate(0,0)"/>
<path d="" fill="#FFFFFF" transform="translate(0,0)"/>
<path d="" fill="#FFFFFF" transform="translate(0,0)"/>
<path d="" fill="#FDFFFD" transform="translate(0,0)"/>
<path d="" fill="#FDFFFE" transform="translate(0,0)"/>
<path d="" fill="#FEFEFE" transform="translate(0,0)"/>
<path d="" fill="#FDFDFD" transform="translate(0,0)"/>
<path d="" fill="#FDFFFE" transform="translate(0,0)"/>
<path d="M0 0 C2 1 2 1 2 1 Z " fill="#FDFFFF" transform="translate(529,15)"/>
<path d="M0 0 C2 1 2 1 2 1 Z " fill="#FDFFFD" transform="translate(518,9)"/>
<path d="M0 0 C2 1 2 1 2 1 Z " fill="#FEFFFE" transform="translate(516,8)"/>
<path d="M0 0 C2 1 2 1 2 1 Z " fill="#FDFFFE" transform="translate(511,6)"/>
<path d="M0 0 C2 1 2 1 2 1 Z " fill="#FDFFFE" transform="translate(508,5)"/>
<path d="M0 0 C2 1 2 1 2 1 Z " fill="#FFFFFF" transform="translate(67,4)"/>
<path d="M0 0 C2 1 2 1 2 1 Z " fill="#FDFFFF" transform="translate(502,3)"/>
<path d="M0 0 C2 1 2 1 2 1 Z " fill="#FFFFFF" transform="translate(70,3)"/>
<path d="M0 0 C2 1 2 1 2 1 Z " fill="#FDFFFF" transform="translate(498,2)"/>
<path d="M0 0 C2 1 2 1 2 1 Z " fill="#FEFFFF" transform="translate(79,1)"/>
<path d="" fill="#FFFFFF" transform="translate(0,0)"/>
<path d="" fill="#FDFFFF" transform="translate(0,0)"/>
<path d="" fill="#FFFFFF" transform="translate(0,0)"/>
<path d="" fill="#FFFFFF" transform="translate(0,0)"/>
<path d="" fill="#FFFFFF" transform="translate(0,0)"/>
<path d="" fill="#FDFFFF" transform="translate(0,0)"/>
<path d="" fill="#FFFFFF" transform="translate(0,0)"/>
<path d="" fill="#FFFFFF" transform="translate(0,0)"/>
<path d="" fill="#FFFFFF" transform="translate(0,0)"/>
<path d="" fill="#FDFFFF" transform="translate(0,0)"/>
<path d="" fill="#FFFFFF" transform="translate(0,0)"/>
<path d="" fill="#FDFFFF" transform="translate(0,0)"/>
<path d="" fill="#FFFFFF" transform="translate(0,0)"/>
<path d="" fill="#FDFFFF" transform="translate(0,0)"/>
<path d="" fill="#FDFFFF" transform="translate(0,0)"/>
<path d="" fill="#FDFFFF" transform="translate(0,0)"/>
<path d="" fill="#FFFFFF" transform="translate(0,0)"/>
<path d="" fill="#FDFFFF" transform="translate(0,0)"/>
<path d="" fill="#FFFFFF" transform="translate(0,0)"/>
<path d="" fill="#FDFFFF" transform="translate(0,0)"/>
<path d="" fill="#FDFFFF" transform="translate(0,0)"/>
<path d="" fill="#FFFFFF" transform="translate(0,0)"/>
<path d="" fill="#FDFFFF" transform="translate(0,0)"/>
<path d="" fill="#FFFFFF" transform="translate(0,0)"/>
<path d="" fill="#FDFFFF" transform="translate(0,0)"/>
<path d="" fill="#FDFFFF" transform="translate(0,0)"/>
<path d="" fill="#FDFFFF" transform="translate(0,0)"/>
<path d="" fill="#FFFFFF" transform="translate(0,0)"/>
<path d="" fill="#FFFFFF" transform="translate(0,0)"/>
<path d="" fill="#FDFFFF" transform="translate(0,0)"/>
<path d="" fill="#FDFFFF" transform="translate(0,0)"/>
<path d="" fill="#FDFFFF" transform="translate(0,0)"/>
<path d="" fill="#FDFFFF" transform="translate(0,0)"/>
<path d="" fill="#FDFFFF" transform="translate(0,0)"/>
<path d="" fill="#FDFFFF" transform="translate(0,0)"/>
<path d="" fill="#FDFFFF" transform="translate(0,0)"/>
<path d="" fill="#FFFFFF" transform="translate(0,0)"/>
<path d="" fill="#FFFFFF" transform="translate(0,0)"/>
<path d="" fill="#FFFFFF" transform="translate(0,0)"/>
<path d="" fill="#FFFFFF" transform="translate(0,0)"/>
<path d="" fill="#FFFFFF" transform="translate(0,0)"/>
<path d="" fill="#FFFFFF" transform="translate(0,0)"/>
<path d="" fill="#FFFFFF" transform="translate(0,0)"/>
<path d="" fill="#FFFFFF" transform="translate(0,0)"/>
<path d="" fill="#FFFFFF" transform="translate(0,0)"/>
<path d="" fill="#FFFFFF" transform="translate(0,0)"/>
<path d="" fill="#FDFFFF" transform="translate(0,0)"/>
<path d="" fill="#FDFFFF" transform="translate(0,0)"/>
<path d="" fill="#FDFFFF" transform="translate(0,0)"/>
<path d="" fill="#FDFFFF" transform="translate(0,0)"/>
<path d="" fill="#FDFFFF" transform="translate(0,0)"/>
<path d="" fill="#FDFFFF" transform="translate(0,0)"/>
<path d="" fill="#FDFFFF" transform="translate(0,0)"/>
<path d="" fill="#FFFFFF" transform="translate(0,0)"/>
<path d="" fill="#FFFFFF" transform="translate(0,0)"/>
<path d="" fill="#FDFFFF" transform="translate(0,0)"/>
<path d="" fill="#FDFFFF" transform="translate(0,0)"/>
<path d="" fill="#FDFFFF" transform="translate(0,0)"/>
<path d="" fill="#FFFFFF" transform="translate(0,0)"/>
<path d="" fill="#FFFFFF" transform="translate(0,0)"/>
<path d="" fill="#FDFFFF" transform="translate(0,0)"/>
<path d="" fill="#FDFFFF" transform="translate(0,0)"/>
<path d="" fill="#FDFFFF" transform="translate(0,0)"/>
<path d="" fill="#FFFFFF" transform="translate(0,0)"/>
<path d="" fill="#FDFFFF" transform="translate(0,0)"/>
<path d="" fill="#FFFFFF" transform="translate(0,0)"/>
<path d="" fill="#FDFFFF" transform="translate(0,0)"/>
<path d="" fill="#FDFFFF" transform="translate(0,0)"/>
<path d="" fill="#FFFFFF" transform="translate(0,0)"/>
<path d="" fill="#FDFFFF" transform="translate(0,0)"/>
<path d="" fill="#FDFFFF" transform="translate(0,0)"/>
<path d="" fill="#FFFFFF" transform="translate(0,0)"/>
<path d="" fill="#FDFFFF" transform="translate(0,0)"/>
<path d="" fill="#FFFFFF" transform="translate(0,0)"/>
<path d="" fill="#FFFFFF" transform="translate(0,0)"/>
<path d="" fill="#FFFFFF" transform="translate(0,0)"/>
<path d="" fill="#FFFFFF" transform="translate(0,0)"/>
<path d="" fill="#FDFFFF" transform="translate(0,0)"/>
<path d="" fill="#FFFFFF" transform="translate(0,0)"/>
<path d="" fill="#FFFFFF" transform="translate(0,0)"/>
<path d="" fill="#FDFFFF" transform="translate(0,0)"/>
<path d="" fill="#FFFFFF" transform="translate(0,0)"/>
<path d="" fill="#FFFFFF" transform="translate(0,0)"/>
<path d="" fill="#FDFFFD" transform="translate(0,0)"/>
<path d="" fill="#FFFFFF" transform="translate(0,0)"/>
<path d="" fill="#FFFFFF" transform="translate(0,0)"/>
<path d="" fill="#FDFFFD" transform="translate(0,0)"/>
<path d="" fill="#FFFFFF" transform="translate(0,0)"/>
<path d="" fill="#FFFFFF" transform="translate(0,0)"/>
<path d="" fill="#FFFFFF" transform="translate(0,0)"/>
<path d="" fill="#FFFFFF" transform="translate(0,0)"/>
<path d="" fill="#FDFFFD" transform="translate(0,0)"/>
<path d="" fill="#FFFFFF" transform="translate(0,0)"/>
<path d="" fill="#FDFDFD" transform="translate(0,0)"/>
<path d="" fill="#FDFFFD" transform="translate(0,0)"/>
<path d="" fill="#FFFFFF" transform="translate(0,0)"/>
<path d="" fill="#FDFFFF" transform="translate(0,0)"/>
<path d="" fill="#FDFFFD" transform="translate(0,0)"/>
<path d="" fill="#FFFFFF" transform="translate(0,0)"/>
<path d="" fill="#FDFFFD" transform="translate(0,0)"/>
<path d="" fill="#FFFFFF" transform="translate(0,0)"/>
<path d="" fill="#FDFFFF" transform="translate(0,0)"/>
<path d="" fill="#FDFFFD" transform="translate(0,0)"/>
<path d="" fill="#FDFFFD" transform="translate(0,0)"/>
<path d="" fill="#FFFFFF" transform="translate(0,0)"/>
<path d="" fill="#FFFFFF" transform="translate(0,0)"/>
<path d="" fill="#FDFFFD" transform="translate(0,0)"/>
<path d="" fill="#FDFFFF" transform="translate(0,0)"/>
<path d="" fill="#FDFFFD" transform="translate(0,0)"/>
<path d="" fill="#FFFFFF" transform="translate(0,0)"/>
<path d="" fill="#FFFFFF" transform="translate(0,0)"/>
<path d="" fill="#FDFFFF" transform="translate(0,0)"/>
<path d="" fill="#FDFFFF" transform="translate(0,0)"/>
<path d="" fill="#FDFFFF" transform="translate(0,0)"/>
<path d="" fill="#FDFFFF" transform="translate(0,0)"/>
<path d="" fill="#FDFFFF" transform="translate(0,0)"/>
<path d="" fill="#FDFFFD" transform="translate(0,0)"/>
<path d="" fill="#FDFFFD" transform="translate(0,0)"/>
<path d="" fill="#FFFFFF" transform="translate(0,0)"/>
<path d="" fill="#FFFFFF" transform="translate(0,0)"/>
<path d="" fill="#FFFFFF" transform="translate(0,0)"/>
<path d="" fill="#FFFFFF" transform="translate(0,0)"/>
<path d="" fill="#FFFFFF" transform="translate(0,0)"/>
<path d="" fill="#FFFFFF" transform="translate(0,0)"/>
<path d="" fill="#FFFFFF" transform="translate(0,0)"/>
<path d="" fill="#FFFFFF" transform="translate(0,0)"/>
<path d="" fill="#FFFFFF" transform="translate(0,0)"/>
<path d="" fill="#FFFFFF" transform="translate(0,0)"/>
<path d="" fill="#FDFFFF" transform="translate(0,0)"/>
<path d="" fill="#FDFFFF" transform="translate(0,0)"/>
<path d="" fill="#FDFFFF" transform="translate(0,0)"/>
<path d="" fill="#FDFFFF" transform="translate(0,0)"/>
<path d="" fill="#FDFFFD" transform="translate(0,0)"/>
<path d="" fill="#FDFFFF" transform="translate(0,0)"/>
<path d="" fill="#FDFFFD" transform="translate(0,0)"/>
<path d="" fill="#FFFFFF" transform="translate(0,0)"/>
<path d="" fill="#FFFFFF" transform="translate(0,0)"/>
<path d="" fill="#FDFFFF" transform="translate(0,0)"/>
<path d="" fill="#FDFFFD" transform="translate(0,0)"/>
<path d="" fill="#FDFFFF" transform="translate(0,0)"/>
<path d="" fill="#FFFFFF" transform="translate(0,0)"/>
<path d="" fill="#FDFFFF" transform="translate(0,0)"/>
<path d="" fill="#FFFFFF" transform="translate(0,0)"/>
<path d="" fill="#FDFFFF" transform="translate(0,0)"/>
<path d="" fill="#FDFFFD" transform="translate(0,0)"/>
<path d="" fill="#FFFFFF" transform="translate(0,0)"/>
<path d="" fill="#FDFFFF" transform="translate(0,0)"/>
<path d="" fill="#FFFFFF" transform="translate(0,0)"/>
<path d="" fill="#FDFFFF" transform="translate(0,0)"/>
<path d="" fill="#FDFFFD" transform="translate(0,0)"/>
<path d="" fill="#FDFFFF" transform="translate(0,0)"/>
<path d="" fill="#FFFFFF" transform="translate(0,0)"/>
<path d="" fill="#FDFFFF" transform="translate(0,0)"/>
<path d="" fill="#FFFFFF" transform="translate(0,0)"/>
<path d="" fill="#FDFFFD" transform="translate(0,0)"/>
<path d="" fill="#FFFFFF" transform="translate(0,0)"/>
<path d="" fill="#FFFFFF" transform="translate(0,0)"/>
<path d="" fill="#FFFFFF" transform="translate(0,0)"/>
<path d="" fill="#FDFFFF" transform="translate(0,0)"/>
<path d="" fill="#FFFFFF" transform="translate(0,0)"/>
<path d="" fill="#FFFFFF" transform="translate(0,0)"/>
<path d="" fill="#FFFFFF" transform="translate(0,0)"/>
<path d="" fill="#FDFFFF" transform="translate(0,0)"/>
<path d="" fill="#FFFFFF" transform="translate(0,0)"/>
</svg>
